<?xml version="1.0" ?><svg height="60px" id="Layer_1" style="enable-background:new 0 0 60 60;" version="1.1" viewBox="0 0 60 60" width="60px" xml:space="preserve" xmlns="http://www.w3.org/2000/svg" xmlns:xlink="http://www.w3.org/1999/xlink"><style type="text/css">
	.st0{fill:#4D5770;}
	.st1{fill:#232E38;}
	.st2{fill:#6ED4BF;}
	.st3{fill:#DCE5E8;}
	.st4{fill:#414154;}
	.st5{fill:#BAC2C4;}
	.st6{fill:#D9E3E6;}
	.st7{fill:#0E1011;}
	.st8{fill:#5D5D78;}
	.st9{fill:#2B3F15;}
	.st10{opacity:0.5;fill:#232E38;}
	.st11{fill:#4F687D;}
	.st12{fill:#404E70;}
	.st13{fill:#FFFFFF;}
	.st14{fill:#E1EAED;}
	.st15{fill:#5B6875;}
	.st16{fill:#FA4E70;}
	.st17{fill:#2E1A0F;}
	.st18{fill:#FFBE4D;}
	.st19{fill:#69402A;}
	.st20{fill:#222222;}
	.st21{fill:#BECACF;}
	.st22{fill:#734E1D;}
	.st23{opacity:0.5;}
	.st24{fill:#09092E;}
	.st25{fill:#F24444;}
	.st26{fill:#3C4C69;}
	.st27{fill:#27B51F;}
	.st28{fill:#FFCC00;}
	.st29{fill:#2E85E2;}
	.st30{fill:#66728A;}
	.st31{opacity:0.3;fill:#0D333B;}
	.st32{fill:#3F291E;}
	.st33{fill:#30304D;}
	.st34{fill:#8FFC48;}
	.st35{fill:#FA466A;}
	.st36{fill:#DAE5E8;}
	.st37{fill:#C5D7DB;}
	.st38{fill:#ADC7C7;}
	.st39{fill:#76D03B;}
	.st40{fill:#6ED49A;}
	.st41{fill:#ABB8BF;}
	.st42{fill:#FF7432;}
	.st43{fill:#687387;}
	.st44{fill:#404A5E;}
	.st45{fill:#5E7B96;}
	.st46{fill:#3CC2A7;}
	.st47{fill:#394145;}
	.st48{fill:#D9FFFE;}
	.st49{fill:#DAE3E6;}
	.st50{fill:#ADC1C7;}
	.st51{fill:#49545E;}
	.st52{fill:#3F4952;}
	.st53{fill:#B8DFE3;}
	.st54{fill:#FC982B;}
	.st55{fill:#529E8F;}
	.st56{opacity:0.3;fill:#0D0D26;}
	.st57{fill:#E45544;}
	.st58{fill:#3E5263;}
	.st59{fill:#434D57;}
	.st60{fill:#4B5661;}
	.st61{fill:#718991;}
	.st62{fill:#5D6A78;}
	.st63{fill:#3F4951;}
	.st64{fill:#354554;}
	.st65{fill:#535F6B;}
	.st66{opacity:0.2;fill:#16191C;}
	.st67{fill:#333C42;}
	.st68{fill:#24292E;}
	.st69{fill:#778899;}
	.st70{fill:#99AFC4;}
	.st71{fill:#AFC8E0;}
	.st72{fill:#758696;}
	.st73{fill:#9AA8B5;}
	.st74{fill:#ABCFD3;}
	.st75{fill:#2F4A57;}
	.st76{fill:#E6EFF2;}
	.st77{fill:#353D45;}
	.st78{fill:#CCE6FF;}
	.st79{fill:#B1BFCC;}
	.st80{fill:#ABB9C7;}
	.st81{fill:#41505E;}
	.st82{fill:#D2DBDE;}
	.st83{fill:#6C7FE0;}
	.st84{fill:#383128;}
	.st85{fill:#EFF9FC;}
	.st86{fill-rule:evenodd;clip-rule:evenodd;fill:#FA4E70;}
	.st87{fill:#FBB040;}
	.st88{fill:#CCFB40;}
	.st89{fill:#BBC9ED;}
	.st90{fill:#7BA7B3;}
	.st91{fill:#7B8BB3;}
	.st92{fill:#859DB3;}
	.st93{fill:#FBE100;}
	.st94{fill:#96B2B3;}
</style><g><rect class="st33" height="23" width="44" x="5" y="18"/><path class="st0" d="M50,55H4c-1.1045694,0-2-0.8954315-2-2V41c0-1.1045685,0.8954306-2,2-2h46c1.1045685,0,2,0.8954315,2,2v12   C52,54.1045685,51.1045685,55,50,55z"/><path class="st0" d="M50,37H4c-1.1045694,0-2-0.8954315-2-2V23c0-1.1045704,0.8954306-2,2-2h46c1.1045685,0,2,0.8954296,2,2v12   C52,36.1045685,51.1045685,37,50,37z"/><path class="st0" d="M50,19H4c-1.1045694,0-2-0.8954296-2-2V5c0-1.1045694,0.8954306-2,2-2h46c1.1045685,0,2,0.8954306,2,2v12   C52,18.1045704,51.1045685,19,50,19z"/><g><path class="st34" d="M46.7099609,10.2793264c-0.3803711-0.3724356-1.050293-0.3724356-1.4199219,0    C45.1098633,10.470458,45,10.722024,45,10.9937353c0,0.2613926,0.1098633,0.5232773,0.2900391,0.7144089    C45.4799805,11.888957,45.7397461,12,46,12c0.2597656,0,0.5200195-0.111043,0.7099609-0.2918558    C46.8896484,11.5170126,47,11.2551279,47,10.9937353C47,10.7318516,46.8896484,10.470458,46.7099609,10.2793264z"/><path class="st13" d="M41.2900391,10.2793264C41.1098633,10.470458,41,10.7318516,41,10.9937353    c0,0.2613926,0.1098633,0.5232773,0.2900391,0.7144089C41.4799805,11.888957,41.7397461,12,42,12    c0.2597656,0,0.5200195-0.111043,0.7099609-0.2918558C42.8896484,11.5170126,43,11.2551279,43,10.9937353    c0-0.2618837-0.1103516-0.5232773-0.2900391-0.7144089C42.3398438,9.9068909,41.6699219,9.9068909,41.2900391,10.2793264z"/><path class="st35" d="M37.2900391,10.2793264C37.1098633,10.470458,37,10.7318516,37,10.9937353    c0,0.2613926,0.1098633,0.5232773,0.2900391,0.7144089C37.4799805,11.888957,37.7397461,12,38,12    c0.2597656,0,0.5200195-0.111043,0.7099609-0.2918558C38.8896484,11.5170126,39,11.2551279,39,10.9937353    c0-0.2618837-0.1103516-0.5232773-0.2900391-0.7144089C38.3295898,9.9068909,37.6699219,9.9068909,37.2900391,10.2793264z"/></g><g><path class="st34" d="M46.7099609,28.2793274c-0.3803711-0.3724365-1.050293-0.3724365-1.4199219,0    C45.1098633,28.470459,45,28.7220249,45,28.9937363c0,0.2613926,0.1098633,0.5232773,0.2900391,0.714407    C45.4799805,29.888958,45.7397461,30,46,30c0.2597656,0,0.5200195-0.111042,0.7099609-0.2918568    C46.8896484,29.5170135,47,29.2551289,47,28.9937363C47,28.7318516,46.8896484,28.470459,46.7099609,28.2793274z"/><path class="st13" d="M41.2900391,28.2793274C41.1098633,28.470459,41,28.7318516,41,28.9937363    c0,0.2613926,0.1098633,0.5232773,0.2900391,0.714407C41.4799805,29.888958,41.7397461,30,42,30    c0.2597656,0,0.5200195-0.111042,0.7099609-0.2918568C42.8896484,29.5170135,43,29.2551289,43,28.9937363    c0-0.2618847-0.1103516-0.5232773-0.2900391-0.7144089C42.3398438,27.9068909,41.6699219,27.9068909,41.2900391,28.2793274z"/><path class="st35" d="M37.2900391,28.2793274C37.1098633,28.470459,37,28.7318516,37,28.9937363    c0,0.2613926,0.1098633,0.5232773,0.2900391,0.714407C37.4799805,29.888958,37.7397461,30,38,30    c0.2597656,0,0.5200195-0.111042,0.7099609-0.2918568C38.8896484,29.5170135,39,29.2551289,39,28.9937363    c0-0.2618847-0.1103516-0.5232773-0.2900391-0.7144089C38.3295898,27.9068909,37.6699219,27.9068909,37.2900391,28.2793274z"/></g><g><rect class="st13" height="8" width="2" x="7" y="7"/><rect class="st13" height="8" width="2" x="7" y="25"/><rect class="st13" height="8" width="2" x="7" y="43"/></g><g><rect class="st13" height="8" width="2" x="11" y="7"/><rect class="st13" height="8" width="2" x="11" y="25"/><rect class="st13" height="8" width="2" x="11" y="43"/></g><g><rect class="st13" height="8" width="2" x="15" y="7"/><rect class="st13" height="8" width="2" x="15" y="25"/><rect class="st13" height="8" width="2" x="15" y="43"/></g></g><g><circle class="st83" cx="46" cy="46" r="12"/><g><g><path class="st13" d="M52.5927734,44.6669922c-0.4121094,0-0.7978516-0.2563477-0.9423828-0.6665039     C50.8027344,41.6074219,48.5322266,40,46,40s-4.8027344,1.6074219-5.6503906,4.0004883     c-0.1835938,0.5200195-0.7539063,0.7944336-1.2763672,0.6088867c-0.5205078-0.1845703-0.7929688-0.7558594-0.6083984-1.2768555     C39.59375,40.1430664,42.6220703,38,46,38s6.40625,2.1430664,7.5351563,5.3325195     c0.1845703,0.5209961-0.0878906,1.0922852-0.6083984,1.2768555     C52.8164063,44.6484375,52.703125,44.6669922,52.5927734,44.6669922z"/><path class="st13" d="M46,54c-3.3779297,0-6.40625-2.1430664-7.5351563-5.3325195     c-0.1845703-0.5209961,0.0878906-1.0922852,0.6083984-1.2768555c0.5234375-0.1835938,1.0927734,0.0888672,1.2763672,0.6088867     C41.1972656,50.3925781,43.4677734,52,46,52s4.8027344-1.6074219,5.6503906-4.0004883     c0.1826172-0.5200195,0.7548828-0.7929688,1.2763672-0.6088867c0.5205078,0.1845703,0.7929688,0.7558594,0.6083984,1.2768555     C52.40625,51.8569336,49.3779297,54,46,54z"/></g><path class="st13" d="M54,44.6665039h-5c-0.5527344,0-1-0.4477539-1-1s0.4472656-1,1-1h3V39c0-0.5522461,0.4472656-1,1-1    s1,0.4477539,1,1V44.6665039z"/><path class="st13" d="M39,54c-0.5527344,0-1-0.4477539-1-1v-5.6665039h5c0.5527344,0,1,0.4477539,1,1s-0.4472656,1-1,1h-3V53    C40,53.5522461,39.5527344,54,39,54z"/></g></g></svg>